<svg xmlns="http://www.w3.org/2000/svg" width="11.871" height="25.553" viewBox="0 0 11.871 25.553"><path d="M11.616,25.231a.321.321,0,0,0,.322.322h4.588a.321.321,0,0,0,.322-.322V12.676h3.326a.322.322,0,0,0,.321-.3L20.814,8.6a.322.322,0,0,0-.32-.349H16.847V5.566a1.139,1.139,0,0,1,1.139-1.14h2.563a.321.321,0,0,0,.322-.322V.322A.322.322,0,0,0,20.549,0h-4.33a4.6,4.6,0,0,0-4.6,4.6V8.25h-2.3A.322.322,0,0,0,9,8.571v3.783a.321.321,0,0,0,.322.322h2.294Z" transform="translate(-9)" fill="#fec63e" fill-rule="evenodd"/></svg>