<svg xmlns="http://www.w3.org/2000/svg" width="25.62" height="25.62" viewBox="0 0 25.62 25.62"><path d="M23.2,17.9a5.3,5.3,0,0,1-5.3,5.3H7.717a5.3,5.3,0,0,1-5.3-5.3V7.717a5.3,5.3,0,0,1,5.3-5.3H17.9a5.3,5.3,0,0,1,5.3,5.3V17.9ZM25.62,7.717A7.717,7.717,0,0,0,17.9,0H7.718A7.717,7.717,0,0,0,0,7.717V17.9A7.718,7.718,0,0,0,7.718,25.62H17.9A7.718,7.718,0,0,0,25.62,17.9ZM12.853,17.028a4.053,4.053,0,1,1,4.053-4.053,4.058,4.058,0,0,1-4.053,4.053Zm0-10.379a6.327,6.327,0,1,0,6.327,6.327,6.334,6.334,0,0,0-6.327-6.327Zm6.7-1.932a1.506,1.506,0,1,0,1.506,1.506A1.506,1.506,0,0,0,19.55,4.717Z" fill="#fec63e"/></svg>