<svg xmlns="http://www.w3.org/2000/svg" width="25.721" height="21.187" viewBox="0 0 25.721 21.187"><path d="M25.624,5.54a10.587,10.587,0,0,1-2.6.742c.418-.071,1.035-.828,1.282-1.135a4.78,4.78,0,0,0,.865-1.575c.023-.045.04-.1,0-.136a.151.151,0,0,0-.138.012,13.276,13.276,0,0,1-3.086,1.182.207.207,0,0,1-.213-.056,2.493,2.493,0,0,0-.269-.276,5.462,5.462,0,0,0-1.5-.916,5.206,5.206,0,0,0-2.293-.37,5.487,5.487,0,0,0-2.176.615,5.612,5.612,0,0,0-1.754,1.432,5.388,5.388,0,0,0-1.048,2.1,5.713,5.713,0,0,0-.056,2.216c.018.124.006.141-.105.124A16.479,16.479,0,0,1,1.929,4.1c-.124-.141-.191-.141-.293.01a5.377,5.377,0,0,0,.916,6.354c.208.2.421.394.652.573a5.4,5.4,0,0,1-2.046-.573c-.124-.078-.186-.033-.2.107A3.207,3.207,0,0,0,1,11.18a5.439,5.439,0,0,0,3.352,4.336,3.167,3.167,0,0,0,.68.207,6.061,6.061,0,0,1-2.007.063c-.146-.029-.2.044-.146.185A5.642,5.642,0,0,0,7.09,19.5c.191.034.383.034.574.079-.011.017-.023.017-.034.034-.474.722-2.116,1.26-2.88,1.527A10.324,10.324,0,0,1,.376,21.7c-.235-.035-.285-.032-.348,0s-.008.1.068.157c.3.2.6.371.911.54A14.428,14.428,0,0,0,3.93,23.567c5.254,1.451,11.172.385,15.119-3.535,3.1-3.078,4.183-7.323,4.183-11.574,0-.166.2-.257.313-.346a10.164,10.164,0,0,0,2.048-2.14.622.622,0,0,0,.127-.41V5.54C25.721,5.472,25.729,5.492,25.624,5.54Z" transform="translate(0 -2.999)" fill="#fec63e" fill-rule="evenodd"/></svg>